# xmcd
#
# Track frame offsets:
#	150
#	19691
#	37686
#	51982
#	69962
#	88026
#	101517
#	119043
#	133502
#	146357
#	162167
#	179265
#	194078
#	209229
#	223854
#	238101
#	254299
#	272400
#	289240
#	305456
#	320301
#	335407
#
# Disc length: 4650 seconds
#
# Revision: 0
# Processed by: cddbd v1.5.2PL0 Copyright (c) Steve Scherf et al.
# Submitted via: dBpowerAMP V4.0
#
DISCID=4e122816
DTITLE=Various Artist - ERG Nu Country Traxx Vol. 231 CAN
DYEAR=2013
DGENRE=Country
TTITLE0=Brad Paisley - I Can't Change The World
TTITLE1=Jennifer Nettles - That Girl
TTITLE2=Luke Bryan - That's My Kind Of Night
TTITLE3=Zac Brown Band - Sweet Annie
TTITLE4=Blake Shelton - Mine Would Be You
TTITLE5=Deric Ruttan - Take The Week Off
TTITLE6=Frankie Ballard  - Helluva Life
TTITLE7=Jake Owen - Days Of Gold
TTITLE8=Laura Bell Bundy - Two Step
TTITLE9=Danielle Bradbery - The Heart Of Dixie
TTITLE10=Ronnie Dunn - Kiss You There
TTITLE11=Cole Swindell - Chillin' It
TTITLE12=Wyatt  - Roll The Windows Down
TTITLE13=Alee - Crazy
TTITLE14=Darius Rucker - Radio [Remix]
TTITLE15=Blackberry Smoke - Ain't Much Left Of Me
TTITLE16=Clayton Bellamy - Days Aren't Long Enough
TTITLE17=Uncle Kracker - Blue Skies
TTITLE18=Bush Hawg - Crushin'
TTITLE19=Colt Ford ft. Jason Aldean - Drivin' Around Song
TTITLE20=Josh Thompson - Cold Beer With Your Name On It
TTITLE21=Ash Bowers - Shake It Off
EXTD=
EXTT0=
EXTT1=
EXTT2=
EXTT3=
EXTT4=
EXTT5=
EXTT6=
EXTT7=
EXTT8=
EXTT9=
EXTT10=
EXTT11=
EXTT12=
EXTT13=
EXTT14=
EXTT15=
EXTT16=
EXTT17=
EXTT18=
EXTT19=
EXTT20=
EXTT21=
PLAYORDER=
